<mxfile host="app.diagrams.net" modified="2024-05-10T12:31:29.369Z" agent="Mozilla/5.0 (Macintosh; Intel Mac OS X 10_15_7) AppleWebKit/537.36 (KHTML, like Gecko) Chrome/116.0.0.0 Safari/537.36" version="24.3.1" etag="Rl-xUkab4Q-fUFfJ0BV8" type="github">
  <diagram name="Page-1" id="7T1wtyusBuh4NKw_Ivc3">
    <mxGraphModel>
      <root>
        <mxCell id="0" />
        <mxCell id="1" parent="0" />
      </root>
    </mxGraphModel>
  </diagram>
</mxfile>
